<?xml version="1.0" encoding="UTF-8" standalone="no"?>
<!-- Created with Inkscape (http://www.inkscape.org/) -->

<svg
   xmlns:dc="http://purl.org/dc/elements/1.1/"
   xmlns:cc="http://creativecommons.org/ns#"
   xmlns:rdf="http://www.w3.org/1999/02/22-rdf-syntax-ns#"
   xmlns:svg="http://www.w3.org/2000/svg"
   xmlns="http://www.w3.org/2000/svg"
   xmlns:sodipodi="http://sodipodi.sourceforge.net/DTD/sodipodi-0.dtd"
   xmlns:inkscape="http://www.inkscape.org/namespaces/inkscape"
   width="3.9343657"
   height="3.5928149"
   id="svg2"
   version="1.1"
   inkscape:version="0.48.4 r9939"
   sodipodi:docname="rice.svg">
  <defs
     id="defs4" />
  <sodipodi:namedview
     id="base"
     pagecolor="#ffffff"
     bordercolor="#666666"
     borderopacity="1.0"
     inkscape:pageopacity="0.0"
     inkscape:pageshadow="2"
     inkscape:zoom="32"
     inkscape:cx="0.42641203"
     inkscape:cy="4.4437706"
     inkscape:document-units="px"
     inkscape:current-layer="g4088"
     showgrid="false"
     inkscape:window-width="1366"
     inkscape:window-height="718"
     inkscape:window-x="0"
     inkscape:window-y="0"
     inkscape:window-maximized="1"
     fit-margin-top="0"
     fit-margin-left="0"
     fit-margin-right="0"
     fit-margin-bottom="0" />
  <metadata
     id="metadata7">
    <rdf:RDF>
      <cc:Work
         rdf:about="">
        <dc:format>image/svg+xml</dc:format>
        <dc:type
           rdf:resource="http://purl.org/dc/dcmitype/StillImage" />
        <dc:title />
      </cc:Work>
    </rdf:RDF>
  </metadata>
  <g
     inkscape:label="Layer 1"
     inkscape:groupmode="layer"
     id="layer1"
     transform="translate(0.00154743,-1048.7708)">
    <g
       id="g3786"
       transform="matrix(0.1418977,0,0,0.1418977,22.066759,873.68477)"
       style="stroke-width:2.81893229;stroke-miterlimit:4;stroke-dasharray:none">
      <g
         id="g4088"
         transform="translate(-34.487027,9.9518223)">
        <path
           style="fill:#f3d698;fill-opacity:1;stroke:#000000;stroke-width:2.81893229;stroke-linecap:butt;stroke-linejoin:miter;stroke-miterlimit:4;stroke-opacity:1;stroke-dasharray:none"
           d="m -99.950438,1233.8701 c 3.64602,1.3719 6.33995,-3.6378 4.75277,-6.609 -2.40726,-4.7658 -6.317312,1.0995 -9.796782,0.6016 -4.02989,0.4592 -7.54724,-4.7465 -11.42396,-1.3776 -2.94241,2.3185 -0.11305,6.3782 -2.36124,9.2179 -2.52337,3.0309 1.31201,4.6866 3.02196,6.4728 -0.21824,2.2247 -0.98577,7.4222 2.85311,5.0591 2.21499,-2.0926 5.01543,-3.7823 8.18327,-3.4946 3.73148,0.5921 4.59938,-3.4378 2.64716,-5.8847 -0.89592,-1.8435 -0.12609,-3.8933 2.123712,-3.9855 z"
           id="path4052"
           inkscape:connector-curvature="0" />
        <path
           transform="matrix(13.311624,0,0,14.975578,-247.09066,-14452.807)"
           d="m 10.46875,1047.9247 c 0,0.069 -0.06296,0.125 -0.140625,0.125 -0.07766,0 -0.140625,-0.056 -0.140625,-0.125 0,-0.069 0.06296,-0.125 0.140625,-0.125 0.07766,0 0.140625,0.056 0.140625,0.125 z"
           sodipodi:ry="0.125"
           sodipodi:rx="0.140625"
           sodipodi:cy="1047.9247"
           sodipodi:cx="10.328125"
           id="path4018"
           style="fill:#413803;fill-opacity:1;stroke:none"
           sodipodi:type="arc" />
        <path
           sodipodi:type="arc"
           style="fill:#413803;fill-opacity:1;stroke:none"
           id="path4020"
           sodipodi:cx="10.015625"
           sodipodi:cy="1046.7216"
           sodipodi:rx="0.109375"
           sodipodi:ry="0.109375"
           d="m 10.125,1046.7216 c 0,0.06 -0.04897,0.1093 -0.109375,0.1093 -0.060406,0 -0.109375,-0.049 -0.109375,-0.1093 0,-0.06 0.048969,-0.1094 0.109375,-0.1094 0.06041,0 0.109375,0.049 0.109375,0.1094 z"
           transform="matrix(14.094661,0,0,14.094661,-248.6793,-13519.082)" />
        <path
           transform="matrix(14.094661,0,0,14.094661,-254.84571,-13523.266)"
           d="m 10.125,1046.7216 c 0,0.06 -0.04897,0.1093 -0.109375,0.1093 -0.060406,0 -0.109375,-0.049 -0.109375,-0.1093 0,-0.06 0.048969,-0.1094 0.109375,-0.1094 0.06041,0 0.109375,0.049 0.109375,0.1094 z"
           sodipodi:ry="0.109375"
           sodipodi:rx="0.109375"
           sodipodi:cy="1046.7216"
           sodipodi:cx="10.015625"
           id="path4086"
           style="fill:#413803;fill-opacity:1;stroke:none"
           sodipodi:type="arc" />
      </g>
    </g>
  </g>
</svg>
