<?xml version="1.0" encoding="UTF-8" standalone="no"?>
<!-- Created with Inkscape (http://www.inkscape.org/) -->

<svg
   xmlns:dc="http://purl.org/dc/elements/1.1/"
   xmlns:cc="http://creativecommons.org/ns#"
   xmlns:rdf="http://www.w3.org/1999/02/22-rdf-syntax-ns#"
   xmlns:svg="http://www.w3.org/2000/svg"
   xmlns="http://www.w3.org/2000/svg"
   xmlns:sodipodi="http://sodipodi.sourceforge.net/DTD/sodipodi-0.dtd"
   xmlns:inkscape="http://www.inkscape.org/namespaces/inkscape"
   width="3.375"
   height="3.40625"
   id="svg2"
   version="1.1"
   inkscape:version="0.48.4 r9939"
   sodipodi:docname="roti.svg">
  <defs
     id="defs4" />
  <sodipodi:namedview
     id="base"
     pagecolor="#ffffff"
     bordercolor="#666666"
     borderopacity="1.0"
     inkscape:pageopacity="0.0"
     inkscape:pageshadow="2"
     inkscape:zoom="45.254834"
     inkscape:cx="9.3619812"
     inkscape:cy="4.9880343"
     inkscape:document-units="px"
     inkscape:current-layer="g3786"
     showgrid="false"
     inkscape:window-width="1366"
     inkscape:window-height="718"
     inkscape:window-x="0"
     inkscape:window-y="0"
     inkscape:window-maximized="1"
     fit-margin-top="0"
     fit-margin-left="0"
     fit-margin-right="0"
     fit-margin-bottom="0" />
  <metadata
     id="metadata7">
    <rdf:RDF>
      <cc:Work
         rdf:about="">
        <dc:format>image/svg+xml</dc:format>
        <dc:type
           rdf:resource="http://purl.org/dc/dcmitype/StillImage" />
        <dc:title />
      </cc:Work>
    </rdf:RDF>
  </metadata>
  <g
     inkscape:label="Layer 1"
     inkscape:groupmode="layer"
     id="layer1"
     transform="translate(-0.01250006,-1048.9563)">
    <g
       id="g3786"
       transform="matrix(0.1418977,0,0,0.1418977,22.066759,873.68477)"
       style="stroke-width:2.81893229;stroke-miterlimit:4;stroke-dasharray:none">
      <g
         id="g4024"
         transform="translate(-61.135588,24.137089)">
        <path
           transform="matrix(7.0473306,0,0,7.0473306,-155.51175,-6157.1454)"
           d="m 11.875,1047.2372 c 0,0.8284 -0.671573,1.5 -1.5,1.5 -0.8284271,0 -1.5,-0.6716 -1.5,-1.5 0,-0.8284 0.6715729,-1.5 1.5,-1.5 0.828427,0 1.5,0.6716 1.5,1.5 z"
           sodipodi:ry="1.5"
           sodipodi:rx="1.5"
           sodipodi:cy="1047.2372"
           sodipodi:cx="10.375"
           id="path4014"
           style="fill:#c8aa64;fill-opacity:1;stroke:#000000;stroke-width:0.40000001;stroke-miterlimit:4;stroke-opacity:1;stroke-dasharray:none"
           sodipodi:type="arc" />
        <path
           transform="matrix(14.094661,0,0,14.094661,-225.32437,-13532.967)"
           d="m 10.125,1046.7216 c 0,0.06 -0.04897,0.1093 -0.109375,0.1093 -0.060406,0 -0.109375,-0.049 -0.109375,-0.1093 0,-0.06 0.048969,-0.1094 0.109375,-0.1094 0.06041,0 0.109375,0.049 0.109375,0.1094 z"
           sodipodi:ry="0.109375"
           sodipodi:rx="0.109375"
           sodipodi:cy="1046.7216"
           sodipodi:cx="10.015625"
           id="path4016"
           style="fill:#984706;fill-opacity:1;stroke:none"
           sodipodi:type="arc" />
        <path
           transform="matrix(13.311624,0,0,14.975578,-219.32924,-14466.342)"
           d="m 10.46875,1047.9247 c 0,0.069 -0.06296,0.125 -0.140625,0.125 -0.07766,0 -0.140625,-0.056 -0.140625,-0.125 0,-0.069 0.06296,-0.125 0.140625,-0.125 0.07766,0 0.140625,0.056 0.140625,0.125 z"
           sodipodi:ry="0.125"
           sodipodi:rx="0.140625"
           sodipodi:cy="1047.9247"
           sodipodi:cx="10.328125"
           id="path4018"
           style="fill:#984706;fill-opacity:1;stroke:none"
           sodipodi:type="arc" />
        <path
           sodipodi:type="arc"
           style="fill:#984706;fill-opacity:1;stroke:none"
           id="path4020"
           sodipodi:cx="10.015625"
           sodipodi:cy="1046.7216"
           sodipodi:rx="0.109375"
           sodipodi:ry="0.109375"
           d="m 10.125,1046.7216 c 0,0.06 -0.04897,0.1093 -0.109375,0.1093 -0.060406,0 -0.109375,-0.049 -0.109375,-0.1093 0,-0.06 0.048969,-0.1094 0.109375,-0.1094 0.06041,0 0.109375,0.049 0.109375,0.1094 z"
           transform="matrix(14.094661,0,0,14.094661,-219.59841,-13530.985)" />
        <path
           sodipodi:type="arc"
           style="fill:#984706;fill-opacity:1;stroke:none"
           id="path4022"
           sodipodi:cx="10.328125"
           sodipodi:cy="1047.9247"
           sodipodi:rx="0.140625"
           sodipodi:ry="0.125"
           d="m 10.46875,1047.9247 c 0,0.069 -0.06296,0.125 -0.140625,0.125 -0.07766,0 -0.140625,-0.056 -0.140625,-0.125 0,-0.069 0.06296,-0.125 0.140625,-0.125 0.07766,0 0.140625,0.056 0.140625,0.125 z"
           transform="matrix(13.311624,0,0,14.975578,-224.93536,-14466.653)" />
      </g>
    </g>
  </g>
</svg>
