<?xml version="1.0" encoding="UTF-8" standalone="no"?>
<!-- Created with Inkscape (http://www.inkscape.org/) -->

<svg
   xmlns:dc="http://purl.org/dc/elements/1.1/"
   xmlns:cc="http://creativecommons.org/ns#"
   xmlns:rdf="http://www.w3.org/1999/02/22-rdf-syntax-ns#"
   xmlns:svg="http://www.w3.org/2000/svg"
   xmlns="http://www.w3.org/2000/svg"
   xmlns:sodipodi="http://sodipodi.sourceforge.net/DTD/sodipodi-0.dtd"
   xmlns:inkscape="http://www.inkscape.org/namespaces/inkscape"
   width="8.2700005"
   height="8.2700005"
   id="svg2"
   version="1.1"
   inkscape:version="0.48.4 r9939"
   sodipodi:docname="bush0.svg"
   inkscape:export-filename="/home/zar/Desktop/ddr/bush0.png"
   inkscape:export-xdpi="500"
   inkscape:export-ydpi="500">
  <defs
     id="defs4" />
  <sodipodi:namedview
     id="base"
     pagecolor="#ffffff"
     bordercolor="#666666"
     borderopacity="1.0"
     inkscape:pageopacity="0.0"
     inkscape:pageshadow="2"
     inkscape:zoom="22.627417"
     inkscape:cx="4.4059268"
     inkscape:cy="2.7071031"
     inkscape:document-units="px"
     inkscape:current-layer="layer1"
     showgrid="false"
     inkscape:window-width="1366"
     inkscape:window-height="718"
     inkscape:window-x="0"
     inkscape:window-y="0"
     inkscape:window-maximized="1"
     fit-margin-top="0"
     fit-margin-left="0"
     fit-margin-right="0"
     fit-margin-bottom="0" />
  <metadata
     id="metadata7">
    <rdf:RDF>
      <cc:Work
         rdf:about="">
        <dc:format>image/svg+xml</dc:format>
        <dc:type
           rdf:resource="http://purl.org/dc/dcmitype/StillImage" />
        <dc:title></dc:title>
      </cc:Work>
    </rdf:RDF>
  </metadata>
  <g
     inkscape:label="Layer 1"
     inkscape:groupmode="layer"
     id="layer1"
     transform="translate(-2.214771,-1034.9564)">
    <path
       style="fill:#404a08;fill-opacity:1;stroke:#000000;stroke-width:0.40000001;stroke-linecap:round;stroke-linejoin:miter;stroke-miterlimit:4;stroke-opacity:1;stroke-dasharray:none;stroke-dashoffset:0"
       d="m 5.0685212,1035.1539 c -1.366835,0 -2.5,1.1019 -2.5,2.4688 0,0.8542 0.435429,1.6177 1.09375,2.0625 -0.096364,0.2657 -0.15625,0.5447 -0.15625,0.8437 0,1.379 1.1209611,2.5 2.5,2.5 1.0104112,0 1.8882041,-0.6055 2.28125,-1.4687 1.0225093,-0.017 1.8437498,-0.8485 1.8437498,-1.875 0,-1.0374 -0.8376697,-1.875 -1.8749998,-1.875 -0.2735425,0 -0.515591,0.082 -0.75,0.1875 0.018589,-0.1223 0.03125,-0.2476 0.03125,-0.375 0,-1.3669 -1.101915,-2.4688 -2.46875,-2.4688 z"
       id="path5215"
       inkscape:connector-curvature="0" />
  </g>
</svg>
