<?xml version="1.0" encoding="UTF-8" standalone="no"?>
<!-- Created with Inkscape (http://www.inkscape.org/) -->

<svg
   xmlns:dc="http://purl.org/dc/elements/1.1/"
   xmlns:cc="http://creativecommons.org/ns#"
   xmlns:rdf="http://www.w3.org/1999/02/22-rdf-syntax-ns#"
   xmlns:svg="http://www.w3.org/2000/svg"
   xmlns="http://www.w3.org/2000/svg"
   xmlns:sodipodi="http://sodipodi.sourceforge.net/DTD/sodipodi-0.dtd"
   xmlns:inkscape="http://www.inkscape.org/namespaces/inkscape"
   width="7.0862374"
   height="6.9988499"
   id="svg2"
   version="1.1"
   inkscape:version="0.48.4 r9939"
   sodipodi:docname="garbage2.svg"
   inkscape:export-filename="/home/zar/Desktop/ddr/garbage2.png"
   inkscape:export-xdpi="500"
   inkscape:export-ydpi="500">
  <defs
     id="defs4" />
  <sodipodi:namedview
     id="base"
     pagecolor="#ffffff"
     bordercolor="#666666"
     borderopacity="1.0"
     inkscape:pageopacity="0.0"
     inkscape:pageshadow="2"
     inkscape:zoom="22.627417"
     inkscape:cx="-3.3780679"
     inkscape:cy="4.4091924"
     inkscape:document-units="px"
     inkscape:current-layer="layer1"
     showgrid="false"
     inkscape:window-width="1366"
     inkscape:window-height="718"
     inkscape:window-x="0"
     inkscape:window-y="0"
     inkscape:window-maximized="1"
     fit-margin-top="0"
     fit-margin-left="0"
     fit-margin-right="0"
     fit-margin-bottom="0" />
  <metadata
     id="metadata7">
    <rdf:RDF>
      <cc:Work
         rdf:about="">
        <dc:format>image/svg+xml</dc:format>
        <dc:type
           rdf:resource="http://purl.org/dc/dcmitype/StillImage" />
        <dc:title></dc:title>
      </cc:Work>
    </rdf:RDF>
  </metadata>
  <g
     inkscape:label="Layer 1"
     inkscape:groupmode="layer"
     id="layer1"
     transform="translate(-13.180746,-1036.2644)">
    <path
       style="fill:#322521;fill-opacity:1;stroke:#000000;stroke-width:0.40000001;stroke-linecap:butt;stroke-linejoin:miter;stroke-miterlimit:4;stroke-opacity:1;stroke-dasharray:none"
       d="m -6.3125,1.8550696 c -0.087432,0.7706988 1.4478109,0.3640546 1.5,0.625 0.382325,1.9116253 -1.8378038,-1.3248498 -0.9375,1.625 1.6832004,5.5150144 -2.5125028,1.3749954 -1.5,3.0625 0.1718332,0.2863887 -0.8506379,0.2362242 -1,-0.0625 -0.1469348,-0.2938696 -1.760053,-0.3342814 -2.125,-1.125 -0.29516,-0.6395132 0.34908,-0.9248217 0.1875,-1.625 -0.104155,-0.4513365 2.176002,1.3685147 2.125,1.0625 -0.326013,-1.9560762 0.8451626,-3.7270159 1.75,-3.5625 z"
       id="path5117"
       inkscape:connector-curvature="0"
       transform="translate(23.834222,1034.62)"
       sodipodi:nodetypes="csssssssc" />
    <path
       style="fill:#cbb7b3;fill-opacity:1;stroke:#000000;stroke-width:0.40000001;stroke-linecap:butt;stroke-linejoin:miter;stroke-miterlimit:4;stroke-opacity:1;stroke-dasharray:none"
       d="m 16.459222,1040.1001 c 0.51038,-0.1471 -3.483539,-0.5927 -3,-0.8125 6.303188,-2.8651 4.74241,6.9109 3,0.8125 z"
       id="path5113"
       inkscape:connector-curvature="0"
       sodipodi:nodetypes="csc" />
    <rect
       style="fill:#911717;fill-opacity:1;stroke:#000000;stroke-width:0.40011117;stroke-miterlimit:4;stroke-opacity:1;stroke-dasharray:none"
       id="rect5115"
       width="1.3592323"
       height="2.2235479"
       x="245.82858"
       y="1019.507"
       transform="matrix(0.98170284,0.19041939,-0.22303364,0.97481075,0,0)" />
    <path
       sodipodi:nodetypes="csc"
       inkscape:connector-curvature="0"
       id="path5138"
       d="m 16.378584,1038.4074 c 0.526967,-0.067 -3.350331,-1.1232 -2.838663,-1.2658 6.669846,-1.858 3.619021,7.56 2.838663,1.2658 z"
       style="fill:#bc9076;fill-opacity:1;stroke:#000000;stroke-width:0.40000001;stroke-linecap:butt;stroke-linejoin:miter;stroke-miterlimit:4;stroke-opacity:1;stroke-dasharray:none" />
    <path
       sodipodi:type="arc"
       style="fill:#d8dfae;fill-opacity:1;stroke:#000000;stroke-width:0.40000001;stroke-linecap:round;stroke-linejoin:miter;stroke-miterlimit:4;stroke-opacity:1;stroke-dasharray:none;stroke-dashoffset:0"
       id="path5140"
       sodipodi:cx="7.1875"
       sodipodi:cy="3.1745033"
       sodipodi:rx="0.8125"
       sodipodi:ry="0.8125"
       d="m 8,3.1745033 c 0,0.4487314 -0.3637686,0.8125 -0.8125,0.8125 -0.4487314,0 -0.8125,-0.3637686 -0.8125,-0.8125 0,-0.4487313 0.3637686,-0.8125 0.8125,-0.8125 0.4487314,0 0.8125,0.3637687 0.8125,0.8125 z"
       transform="translate(12.066983,1036.0658)" />
  </g>
</svg>
