<?xml version="1.0" encoding="UTF-8" standalone="no"?>
<!-- Created with Inkscape (http://www.inkscape.org/) -->

<svg
   xmlns:dc="http://purl.org/dc/elements/1.1/"
   xmlns:cc="http://creativecommons.org/ns#"
   xmlns:rdf="http://www.w3.org/1999/02/22-rdf-syntax-ns#"
   xmlns:svg="http://www.w3.org/2000/svg"
   xmlns="http://www.w3.org/2000/svg"
   xmlns:sodipodi="http://sodipodi.sourceforge.net/DTD/sodipodi-0.dtd"
   xmlns:inkscape="http://www.inkscape.org/namespaces/inkscape"
   width="7.2992001"
   height="9.2781887"
   id="svg2"
   version="1.1"
   inkscape:version="0.48.4 r9939"
   sodipodi:docname="garbage3.svg"
   inkscape:export-filename="/home/zar/Desktop/ddr/garbage3.png"
   inkscape:export-xdpi="500"
   inkscape:export-ydpi="500">
  <defs
     id="defs4" />
  <sodipodi:namedview
     id="base"
     pagecolor="#ffffff"
     bordercolor="#666666"
     borderopacity="1.0"
     inkscape:pageopacity="0.0"
     inkscape:pageshadow="2"
     inkscape:zoom="22.627417"
     inkscape:cx="5.1066574"
     inkscape:cy="1.7317311"
     inkscape:document-units="px"
     inkscape:current-layer="layer1"
     showgrid="false"
     inkscape:window-width="1366"
     inkscape:window-height="718"
     inkscape:window-x="0"
     inkscape:window-y="0"
     inkscape:window-maximized="1"
     fit-margin-top="0"
     fit-margin-left="0"
     fit-margin-right="0"
     fit-margin-bottom="0" />
  <metadata
     id="metadata7">
    <rdf:RDF>
      <cc:Work
         rdf:about="">
        <dc:format>image/svg+xml</dc:format>
        <dc:type
           rdf:resource="http://purl.org/dc/dcmitype/StillImage" />
        <dc:title></dc:title>
      </cc:Work>
    </rdf:RDF>
  </metadata>
  <g
     inkscape:label="Layer 1"
     inkscape:groupmode="layer"
     id="layer1"
     transform="translate(-4.6960207,-1031.3076)">
    <path
       style="fill:#cbb7b3;fill-opacity:1;stroke:#000000;stroke-width:0.40000001;stroke-linecap:butt;stroke-linejoin:miter;stroke-miterlimit:4;stroke-opacity:1;stroke-dasharray:none"
       d="m 5.6758436,1037.4484 c 0.51038,-0.1471 1.440488,-1.5802 2.7894368,-0.4589 1.445543,1.2016 -1.0470267,6.5573 -2.7894368,0.4589 z"
       id="path5113"
       inkscape:connector-curvature="0"
       sodipodi:nodetypes="csc" />
    <path
       sodipodi:nodetypes="csc"
       inkscape:connector-curvature="0"
       id="path5138"
       d="m 9.6168754,1035.579 c 0.5269666,-0.067 2.3892606,-1.4775 2.1552786,-1.0006 -0.931552,1.8985 -1.374921,7.2948 -2.1552786,1.0006 z"
       style="fill:#bc9076;fill-opacity:1;stroke:#000000;stroke-width:0.40000001;stroke-linecap:butt;stroke-linejoin:miter;stroke-miterlimit:4;stroke-opacity:1;stroke-dasharray:none" />
    <path
       sodipodi:type="arc"
       style="fill:#d8dfae;fill-opacity:1;stroke:#000000;stroke-width:0.40000001;stroke-linecap:round;stroke-linejoin:miter;stroke-miterlimit:4;stroke-opacity:1;stroke-dasharray:none;stroke-dashoffset:0"
       id="path5161"
       sodipodi:cx="-4.1100583"
       sodipodi:cy="-2.4587033"
       sodipodi:rx="2.2980971"
       sodipodi:ry="2.2980971"
       d="m -1.8119612,-2.4587033 c 0,1.269204 -1.0288931,2.29809715 -2.2980971,2.29809715 -1.269204,0 -2.2980971,-1.02889315 -2.2980971,-2.29809715 0,-1.269204 1.0288931,-2.2980971 2.2980971,-2.2980971 1.269204,0 2.2980971,1.0288931 2.2980971,2.2980971 z"
       transform="translate(13.180746,1036.2644)" />
    <path
       sodipodi:type="arc"
       style="fill:#4d513a;fill-opacity:1;stroke:#000000;stroke-width:0.40000001;stroke-linecap:round;stroke-linejoin:miter;stroke-miterlimit:4;stroke-opacity:1;stroke-dasharray:none;stroke-dashoffset:0"
       id="path5140"
       sodipodi:cx="7.1875"
       sodipodi:cy="3.1745033"
       sodipodi:rx="0.8125"
       sodipodi:ry="0.8125"
       d="m 8,3.1745033 c 0,0.4487314 -0.3637686,0.8125 -0.8125,0.8125 -0.4487314,0 -0.8125,-0.3637686 -0.8125,-0.8125 0,-0.4487313 0.3637686,-0.8125 0.8125,-0.8125 0.4487314,0 0.8125,0.3637687 0.8125,0.8125 z"
       transform="translate(2.6978181,1030.3206)" />
    <rect
       style="fill:#888e65;fill-opacity:1;stroke:#000000;stroke-width:0.40000001;stroke-linecap:round;stroke-linejoin:miter;stroke-miterlimit:4;stroke-opacity:1;stroke-dasharray:none;stroke-dashoffset:0"
       id="rect5163"
       width="4.1542525"
       height="1.9445436"
       x="535.59265"
       y="887.54553"
       transform="matrix(0.86025637,0.50986172,-0.50986172,0.86025637,0,0)" />
    <path
       style="fill:#2e3022;fill-opacity:1;stroke:#000000;stroke-width:0.40000001;stroke-linecap:butt;stroke-linejoin:miter;stroke-miterlimit:4;stroke-opacity:1;stroke-dasharray:none"
       d="m 5.0742517,1036.2709 c 0.087417,-0.12 0.178033,-0.2414 0.1971114,-0.3956 0.2225194,-1.7993 3.7726908,-1.803 3.7727071,-1.7442 0.00134,1.0427 -1.7773143,1.1492 -1.7759683,2.1764 4.961e-4,0.36 -0.6235825,0.8008 -0.8089787,1.0485 -0.098496,0.1322 -0.1946501,0.5256 -0.2959351,0.3957 -0.4545036,-0.5828 -0.9776328,-1.3205 -1.2671674,-1.7376"
       id="path5165"
       inkscape:connector-curvature="0" />
  </g>
</svg>
