<?xml version="1.0" encoding="UTF-8" standalone="no"?>
<!-- Created with Inkscape (http://www.inkscape.org/) -->

<svg
   xmlns:dc="http://purl.org/dc/elements/1.1/"
   xmlns:cc="http://creativecommons.org/ns#"
   xmlns:rdf="http://www.w3.org/1999/02/22-rdf-syntax-ns#"
   xmlns:svg="http://www.w3.org/2000/svg"
   xmlns="http://www.w3.org/2000/svg"
   xmlns:sodipodi="http://sodipodi.sourceforge.net/DTD/sodipodi-0.dtd"
   xmlns:inkscape="http://www.inkscape.org/namespaces/inkscape"
   width="7.8699999"
   height="7.8699999"
   id="svg2"
   version="1.1"
   inkscape:version="0.48.4 r9939"
   sodipodi:docname="pavement1.svg"
   inkscape:export-filename="/home/zar/Desktop/ddr/pavement0.png"
   inkscape:export-xdpi="500"
   inkscape:export-ydpi="500">
  <defs
     id="defs4" />
  <sodipodi:namedview
     id="base"
     pagecolor="#ffffff"
     bordercolor="#666666"
     borderopacity="1.0"
     inkscape:pageopacity="0.0"
     inkscape:pageshadow="2"
     inkscape:zoom="16"
     inkscape:cx="6.8786182"
     inkscape:cy="3.1388183"
     inkscape:document-units="px"
     inkscape:current-layer="layer1"
     showgrid="false"
     inkscape:window-width="1366"
     inkscape:window-height="718"
     inkscape:window-x="0"
     inkscape:window-y="0"
     inkscape:window-maximized="1"
     fit-margin-top="0"
     fit-margin-left="0"
     fit-margin-right="0"
     fit-margin-bottom="0" />
  <metadata
     id="metadata7">
    <rdf:RDF>
      <cc:Work
         rdf:about="">
        <dc:format>image/svg+xml</dc:format>
        <dc:type
           rdf:resource="http://purl.org/dc/dcmitype/StillImage" />
        <dc:title></dc:title>
      </cc:Work>
    </rdf:RDF>
  </metadata>
  <g
     inkscape:label="Layer 1"
     inkscape:groupmode="layer"
     id="layer1"
     transform="translate(-2.9240599,-1034.1229)">
    <g
       id="g5678"
       transform="translate(-6.4239056e-4,-0.07469933)">
      <path
         sodipodi:nodetypes="csssssc"
         transform="translate(-5.4404602e-7,1032.3622)"
         inkscape:connector-curvature="0"
         id="path5044"
         d="M 3.375,2.125 C 5.375463,1.8872937 10.29142,1.60355 10.75,2.75 11.106073,3.6401834 9.2441346,4.1787019 9.375,4.375 c 0.5048961,0.7573442 0.824985,3.9625076 0.75,4 C 9.6793228,8.5978386 7.7360667,9.7194267 7.5,9.625 6.8344118,9.3587647 6.7568969,7.3681031 6.25,7.875 1.7792968,12.345703 2.9690381,4.9667335 3.375,2.125 z"
         style="fill:#6a4135;fill-opacity:1;stroke:none" />
      <path
         transform="translate(-37.25,-9.875)"
         sodipodi:type="arc"
         style="fill:#7c4c3e;fill-opacity:1;stroke:none"
         id="path3966"
         sodipodi:cx="41.9375"
         sodipodi:cy="1049.2372"
         sodipodi:rx="0.4375"
         sodipodi:ry="0.375"
         d="m 42.375,1049.2372 c 0,0.2071 -0.195875,0.375 -0.4375,0.375 -0.241625,0 -0.4375,-0.1679 -0.4375,-0.375 0,-0.2071 0.195875,-0.375 0.4375,-0.375 0.241625,0 0.4375,0.1679 0.4375,0.375 z" />
    </g>
  </g>
</svg>
