<?xml version="1.0" encoding="UTF-8" standalone="no"?>
<!-- Created with Inkscape (http://www.inkscape.org/) -->

<svg
   xmlns:dc="http://purl.org/dc/elements/1.1/"
   xmlns:cc="http://creativecommons.org/ns#"
   xmlns:rdf="http://www.w3.org/1999/02/22-rdf-syntax-ns#"
   xmlns:svg="http://www.w3.org/2000/svg"
   xmlns="http://www.w3.org/2000/svg"
   xmlns:sodipodi="http://sodipodi.sourceforge.net/DTD/sodipodi-0.dtd"
   xmlns:inkscape="http://www.inkscape.org/namespaces/inkscape"
   width="13.98"
   height="13.98"
   id="svg2"
   version="1.1"
   inkscape:version="0.48.4 r9939"
   sodipodi:docname="pothole1.svg"
   inkscape:export-filename="/home/zar/Desktop/ddr/pothole1.png"
   inkscape:export-xdpi="500"
   inkscape:export-ydpi="500">
  <defs
     id="defs4" />
  <sodipodi:namedview
     id="base"
     pagecolor="#ffffff"
     bordercolor="#666666"
     borderopacity="1.0"
     inkscape:pageopacity="0.0"
     inkscape:pageshadow="2"
     inkscape:zoom="8"
     inkscape:cx="-16.882109"
     inkscape:cy="-8.0223489"
     inkscape:document-units="px"
     inkscape:current-layer="g3786"
     showgrid="false"
     inkscape:window-width="1366"
     inkscape:window-height="718"
     inkscape:window-x="0"
     inkscape:window-y="0"
     inkscape:window-maximized="1"
     fit-margin-top="0"
     fit-margin-left="0"
     fit-margin-right="0"
     fit-margin-bottom="0" />
  <metadata
     id="metadata7">
    <rdf:RDF>
      <cc:Work
         rdf:about="">
        <dc:format>image/svg+xml</dc:format>
        <dc:type
           rdf:resource="http://purl.org/dc/dcmitype/StillImage" />
        <dc:title></dc:title>
      </cc:Work>
    </rdf:RDF>
  </metadata>
  <g
     inkscape:label="Layer 1"
     inkscape:groupmode="layer"
     id="layer1"
     transform="translate(-32.033648,-1033.3899)">
    <g
       id="g3786"
       transform="matrix(0.1418977,0,0,0.1418977,22.066759,873.68477)"
       style="stroke-width:2.81893229;stroke-miterlimit:4;stroke-dasharray:none">
      <path
         style="fill:#3c251e;fill-opacity:1;stroke:none"
         d="m 92.906654,1170.3447 c -33.716593,-43.3164 4.404581,-19.7951 4.404581,-36.1175 0,-3.9396 6.749045,6.241 10.570995,5.2855 3.99982,-1 16.73741,-14.5186 16.73741,-7.9283 0,27.1032 16.7906,-4.2982 26.42749,14.9756 6.7995,13.599 -24.26392,11.8382 -17.61833,21.142 5.55869,7.7821 37.40812,8.9941 35.23666,22.0229 -1.3859,8.3154 -13.32445,2.7534 -16.73741,6.1664 -0.75591,0.7559 2.73053,10.5417 2.64275,10.571 -8.12671,2.7089 -19.55358,-11.1016 -27.30841,-5.2855 -7.61898,5.7142 -7.64145,13.9513 -16.73741,18.4992 -1.85909,0.9296 2.19197,-10.3765 1.76183,-11.4519 -3.27345,-8.1836 -17.613433,-0.8809 -26.427487,-0.8809 -37.57068,0 4.448028,-13.1848 4.404582,-13.2137 -10.470952,-6.9807 3.248911,-17.4648 7.04733,-22.0229 z"
         id="path8224"
         inkscape:connector-curvature="0"
         sodipodi:nodetypes="cssssssscssssscc" />
    </g>
  </g>
</svg>
