<?xml version="1.0" encoding="UTF-8" standalone="no"?>
<!-- Created with Inkscape (http://www.inkscape.org/) -->

<svg
   xmlns:dc="http://purl.org/dc/elements/1.1/"
   xmlns:cc="http://creativecommons.org/ns#"
   xmlns:rdf="http://www.w3.org/1999/02/22-rdf-syntax-ns#"
   xmlns:svg="http://www.w3.org/2000/svg"
   xmlns="http://www.w3.org/2000/svg"
   xmlns:sodipodi="http://sodipodi.sourceforge.net/DTD/sodipodi-0.dtd"
   xmlns:inkscape="http://www.inkscape.org/namespaces/inkscape"
   width="11.93"
   height="11.93"
   id="svg2"
   version="1.1"
   inkscape:version="0.48.4 r9939"
   sodipodi:docname="pothole0.svg"
   inkscape:export-filename="/home/zar/Desktop/ddr/pothole0.png"
   inkscape:export-xdpi="500"
   inkscape:export-ydpi="500">
  <defs
     id="defs4" />
  <sodipodi:namedview
     id="base"
     pagecolor="#ffffff"
     bordercolor="#666666"
     borderopacity="1.0"
     inkscape:pageopacity="0.0"
     inkscape:pageshadow="2"
     inkscape:zoom="16"
     inkscape:cx="-13.944794"
     inkscape:cy="-1.2232175"
     inkscape:document-units="px"
     inkscape:current-layer="g3786"
     showgrid="false"
     inkscape:window-width="1366"
     inkscape:window-height="718"
     inkscape:window-x="0"
     inkscape:window-y="0"
     inkscape:window-maximized="1"
     fit-margin-top="0"
     fit-margin-left="0"
     fit-margin-right="0"
     fit-margin-bottom="0" />
  <metadata
     id="metadata7">
    <rdf:RDF>
      <cc:Work
         rdf:about="">
        <dc:format>image/svg+xml</dc:format>
        <dc:type
           rdf:resource="http://purl.org/dc/dcmitype/StillImage" />
        <dc:title></dc:title>
      </cc:Work>
    </rdf:RDF>
  </metadata>
  <g
     inkscape:label="Layer 1"
     inkscape:groupmode="layer"
     id="layer1"
     transform="translate(-55.900266,-1030.1678)">
    <g
       id="g3786"
       transform="matrix(0.1418977,0,0,0.1418977,22.066759,873.68477)"
       style="stroke-width:2.81893229;stroke-miterlimit:4;stroke-dasharray:none">
      <path
         style="fill:#3c251e;fill-opacity:1;stroke:none"
         d="m 240.20466,1148.8084 c -6.98975,-7.6263 8.73391,-33.3568 12.56336,-29.618 3.33176,3.2529 10.16003,15.8092 15.32118,10.7702 3.18896,-3.1135 14.30875,-15.2578 16.54688,-15.2578 11.93227,0 8.74704,9.9951 15.93402,15.2578 6.72895,4.9272 16.27688,4.0921 21.75608,12.1164 1.07031,1.5675 -3.55126,4.8862 -3.67708,5.8339 -0.98699,7.4337 2.12838,24.6816 -4.28993,24.6816 -8.53428,0 -7.49051,-15.4123 -18.69184,-17.0528 -8.50924,-1.2461 -1.40377,15.5899 -7.96702,16.1553 -6.40525,0.5518 -21.61573,5.7122 -26.96527,1.795 -3.51947,-2.5771 2.52876,-17.1366 -3.37066,-19.2965 -5.84405,-2.1397 -13.18861,-0.4002 -17.15972,-5.3851 z"
         id="path8287"
         inkscape:connector-curvature="0" />
    </g>
  </g>
</svg>
