<?xml version="1.0" encoding="UTF-8" standalone="no"?>
<!-- Created with Inkscape (http://www.inkscape.org/) -->

<svg
   xmlns:dc="http://purl.org/dc/elements/1.1/"
   xmlns:cc="http://creativecommons.org/ns#"
   xmlns:rdf="http://www.w3.org/1999/02/22-rdf-syntax-ns#"
   xmlns:svg="http://www.w3.org/2000/svg"
   xmlns="http://www.w3.org/2000/svg"
   xmlns:sodipodi="http://sodipodi.sourceforge.net/DTD/sodipodi-0.dtd"
   xmlns:inkscape="http://www.inkscape.org/namespaces/inkscape"
   width="6"
   height="3.40625"
   id="svg2"
   version="1.1"
   inkscape:version="0.48.4 r9939"
   sodipodi:docname="dabba.svg">
  <defs
     id="defs4" />
  <sodipodi:namedview
     id="base"
     pagecolor="#ffffff"
     bordercolor="#666666"
     borderopacity="1.0"
     inkscape:pageopacity="0.0"
     inkscape:pageshadow="2"
     inkscape:zoom="45.254834"
     inkscape:cx="1.3452442"
     inkscape:cy="2.3965359"
     inkscape:document-units="px"
     inkscape:current-layer="g3786"
     showgrid="false"
     inkscape:window-width="1366"
     inkscape:window-height="718"
     inkscape:window-x="0"
     inkscape:window-y="0"
     inkscape:window-maximized="1"
     fit-margin-top="0"
     fit-margin-left="0"
     fit-margin-right="0"
     fit-margin-bottom="0" />
  <metadata
     id="metadata7">
    <rdf:RDF>
      <cc:Work
         rdf:about="">
        <dc:format>image/svg+xml</dc:format>
        <dc:type
           rdf:resource="http://purl.org/dc/dcmitype/StillImage" />
        <dc:title />
      </cc:Work>
    </rdf:RDF>
  </metadata>
  <g
     inkscape:label="Layer 1"
     inkscape:groupmode="layer"
     id="layer1"
     transform="translate(0.34208335,-1049.5093)">
    <g
       id="g3786"
       transform="matrix(0.1418977,0,0,0.1418977,22.066759,873.68477)"
       style="stroke-width:2.81893229;stroke-miterlimit:4;stroke-dasharray:none">
      <path
         style="fill:#aaaaaa;fill-opacity:1;stroke:#000000;stroke-width:0.40000001;stroke-linejoin:miter;stroke-miterlimit:4;stroke-opacity:1;stroke-dasharray:none"
         d="m 0.1875,0.1875 0,2.25 c -0.20022095,0.073602 -0.34375,0.1613738 -0.34375,0.25 0,0.2954207 1.2621204,0.53125 2.8125,0.53125 1.5503796,0 2.8125,-0.2358293 2.8125,-0.53125 0,-0.089353 -0.1404473,-0.1759597 -0.34375,-0.25 l 0,-2.25 -4.9375,0 z"
         transform="matrix(7.0473306,0,0,7.0473306,-155.5,1239.0936)"
         id="rect3989"
         inkscape:connector-curvature="0" />
      <path
         style="fill:#d2d2d2;fill-opacity:1;stroke:none"
         d="m -152.09264,1255.444 c -0.0256,-1.3231 1.1021,-11.8943 2.38126,-11.8943 5.23868,0 11.0851,-0.5129 16.66876,-0.5129 1.35074,0 11.72501,-0.5792 10.95377,0.2565 -1.99232,2.1636 -21.00298,0.4137 -24.52691,2.3275"
         id="path3993"
         inkscape:connector-curvature="0"
         sodipodi:nodetypes="csscc" />
    </g>
  </g>
</svg>
