<?xml version="1.0" encoding="UTF-8" standalone="no"?>
<!-- Created with Inkscape (http://www.inkscape.org/) -->

<svg
   xmlns:dc="http://purl.org/dc/elements/1.1/"
   xmlns:cc="http://creativecommons.org/ns#"
   xmlns:rdf="http://www.w3.org/1999/02/22-rdf-syntax-ns#"
   xmlns:svg="http://www.w3.org/2000/svg"
   xmlns="http://www.w3.org/2000/svg"
   xmlns:sodipodi="http://sodipodi.sourceforge.net/DTD/sodipodi-0.dtd"
   xmlns:inkscape="http://www.inkscape.org/namespaces/inkscape"
   width="10.340795"
   height="15.80829"
   id="svg2"
   version="1.1"
   inkscape:version="0.48.4 r9939"
   sodipodi:docname="tuktuk.svg">
  <defs
     id="defs4" />
  <sodipodi:namedview
     id="base"
     pagecolor="#ffffff"
     bordercolor="#666666"
     borderopacity="1.0"
     inkscape:pageopacity="0.0"
     inkscape:pageshadow="2"
     inkscape:zoom="16"
     inkscape:cx="20.928347"
     inkscape:cy="12.184622"
     inkscape:document-units="px"
     inkscape:current-layer="g3786"
     showgrid="false"
     inkscape:window-width="1366"
     inkscape:window-height="718"
     inkscape:window-x="0"
     inkscape:window-y="0"
     inkscape:window-maximized="1"
     fit-margin-top="0"
     fit-margin-left="0"
     fit-margin-right="0"
     fit-margin-bottom="0" />
  <metadata
     id="metadata7">
    <rdf:RDF>
      <cc:Work
         rdf:about="">
        <dc:format>image/svg+xml</dc:format>
        <dc:type
           rdf:resource="http://purl.org/dc/dcmitype/StillImage" />
        <dc:title />
      </cc:Work>
    </rdf:RDF>
  </metadata>
  <g
     inkscape:label="Layer 1"
     inkscape:groupmode="layer"
     id="layer1"
     transform="translate(-0.00166665,-1036.5523)">
    <g
       id="g3786"
       transform="matrix(0.1418977,0,0,0.1418977,22.066759,873.68477)"
       style="stroke-width:2.81893229;stroke-miterlimit:4;stroke-dasharray:none">
      <path
         id="rect3763"
         d="m -119.06805,1149.1924 c -1.19692,0 -2.39384,0.9564 -4.25,2.8125 -2.07596,2.076 -2.99584,7.8411 -2.75,13.1875 -0.10721,0.026 -0.20421,0.036 -0.3125,0.062 -5.75156,1.4166 -19.70473,15.6921 -20.25,18.75 -0.33323,1.8688 -3.60841,26.6034 -3.375,46.2813 -0.39767,0.352 -0.84037,0.7466 -1.3125,1.2187 -3.71231,3.7123 -3.71231,19.2877 0,23 3.65435,3.6543 4.76921,3.6965 8.34375,0.1562 11.81946,2.8789 36.94024,3.5224 47.593754,0.25 0.02408,0.025 0.0381,0.069 0.0625,0.094 3.71231,3.7123 4.78769,3.7123 8.5,0 3.71231,-3.7123 3.71231,-19.2877 0,-23 -0.999769,-0.9998 -1.370516,-3.4881 -2.090792,-3.9493 -0.353198,-18.6688 -4.051302,-39.5091 -4.909208,-41.0821 -1.43001,-2.6221 -10.018564,-18.9901 -16.312504,-21.2188 -0.66963,-0.2371 -1.31079,-0.4437 -1.9375,-0.625 0.23582,-5.3288 -0.68217,-11.0572 -2.75,-13.125 -1.85615,-1.8561 -3.05307,-2.8125 -4.25,-2.8125 z"
         style="fill:#148c68;fill-opacity:1;stroke:#000000;stroke-width:2.81893229;stroke-miterlimit:4;stroke-opacity:1;stroke-dasharray:none"
         inkscape:connector-curvature="0"
         sodipodi:nodetypes="ssccscsscccsscsscss" />
      <path
         sodipodi:nodetypes="zzzzzzz"
         inkscape:connector-curvature="0"
         id="path3756"
         d="m -126.39427,1165.2549 c -5.75157,1.4166 -30.31134,17.8135 -18.48224,30.0637 11.82911,12.2503 -10.75981,56.4075 -1.24264,59.8932 9.51717,3.4858 44.82129,3.0973 54.803303,-0.7071 9.982012,-3.8044 -15.484883,-55.311 -3.217515,-63.2764 12.267364,-7.9653 -9.316978,-23.2447 -15.610908,-25.4734 -6.29394,-2.2287 -10.49844,-1.9166 -16.25,-0.5 z"
         style="fill:#f6d937;fill-opacity:1;stroke:#000000;stroke-width:2.81893229;stroke-linecap:butt;stroke-linejoin:miter;stroke-miterlimit:4;stroke-opacity:1;stroke-dasharray:none" />
      <path
         sodipodi:nodetypes="zzzzz"
         inkscape:connector-curvature="0"
         id="path3780"
         d="m -125.87082,1170.5162 c 4.52907,-1.544 8.32673,-1.6507 13.08147,0 4.75474,1.6506 15.910091,8.8995 13.43503,10.6066 -2.47506,1.707 -37.49,2.6316 -38.89087,-1.0607 -1.40088,-3.6923 7.84529,-8.002 12.37437,-9.5459 z"
         style="fill:#000000;fill-opacity:1;stroke:#000000;stroke-width:2.81893229;stroke-linecap:butt;stroke-linejoin:miter;stroke-miterlimit:4;stroke-opacity:1;stroke-dasharray:none" />
    </g>
  </g>
</svg>
