<?xml version="1.0" encoding="UTF-8" standalone="no"?>
<!-- Created with Inkscape (http://www.inkscape.org/) -->

<svg
   xmlns:dc="http://purl.org/dc/elements/1.1/"
   xmlns:cc="http://creativecommons.org/ns#"
   xmlns:rdf="http://www.w3.org/1999/02/22-rdf-syntax-ns#"
   xmlns:svg="http://www.w3.org/2000/svg"
   xmlns="http://www.w3.org/2000/svg"
   xmlns:sodipodi="http://sodipodi.sourceforge.net/DTD/sodipodi-0.dtd"
   xmlns:inkscape="http://www.inkscape.org/namespaces/inkscape"
   width="80"
   height="20"
   id="svg2"
   version="1.1"
   inkscape:version="0.48.4 r9939"
   sodipodi:docname="road3.svg">
  <defs
     id="defs4" />
  <sodipodi:namedview
     id="base"
     pagecolor="#ffffff"
     bordercolor="#666666"
     borderopacity="1.0"
     inkscape:pageopacity="0.0"
     inkscape:pageshadow="2"
     inkscape:zoom="8"
     inkscape:cx="8.910016"
     inkscape:cy="16.969952"
     inkscape:document-units="px"
     inkscape:current-layer="g3786"
     showgrid="false"
     inkscape:window-width="1366"
     inkscape:window-height="718"
     inkscape:window-x="0"
     inkscape:window-y="0"
     inkscape:window-maximized="1"
     fit-margin-top="0"
     fit-margin-left="0"
     fit-margin-right="0"
     fit-margin-bottom="0" />
  <metadata
     id="metadata7">
    <rdf:RDF>
      <cc:Work
         rdf:about="">
        <dc:format>image/svg+xml</dc:format>
        <dc:type
           rdf:resource="http://purl.org/dc/dcmitype/StillImage" />
        <dc:title />
      </cc:Work>
    </rdf:RDF>
  </metadata>
  <g
     inkscape:label="Layer 1"
     inkscape:groupmode="layer"
     id="layer1"
     transform="translate(5.4404602e-7,-1032.3622)">
    <g
       id="g3786"
       transform="matrix(0.1418977,0,0,0.1418977,22.066759,873.68477)"
       style="stroke-width:2.81893229;stroke-miterlimit:4;stroke-dasharray:none">
      <rect
         style="fill:#8a726c;fill-opacity:1;stroke:none"
         id="rect3956"
         width="563.78644"
         height="140.94661"
         x="-155.51175"
         y="1118.2522" />
      <path
         sodipodi:type="arc"
         style="fill:#7c4c3e;fill-opacity:1;stroke:none"
         id="path3964"
         sodipodi:cx="20.8125"
         sodipodi:cy="1040.6122"
         sodipodi:rx="0.9375"
         sodipodi:ry="1.125"
         d="m 21.75,1040.6122 c 0,0.6213 -0.419733,1.125 -0.9375,1.125 -0.517767,0 -0.9375,-0.5037 -0.9375,-1.125 0,-0.6213 0.419733,-1.125 0.9375,-1.125 0.517767,0 0.9375,0.5037 0.9375,1.125 z"
         transform="matrix(7.0473306,0,0,7.0473306,119.33414,-6085.7912)" />
      <path
         sodipodi:type="arc"
         style="fill:#7c4c3e;fill-opacity:1;stroke:none"
         id="path3966"
         sodipodi:cx="41.9375"
         sodipodi:cy="1049.2372"
         sodipodi:rx="0.4375"
         sodipodi:ry="0.375"
         d="m 42.375,1049.2372 c 0,0.2071 -0.195875,0.375 -0.4375,0.375 -0.241625,0 -0.4375,-0.1679 -0.4375,-0.375 0,-0.2071 0.195875,-0.375 0.4375,-0.375 0.241625,0 0.4375,0.1679 0.4375,0.375 z"
         transform="matrix(7.0473306,0,0,7.0473306,-307.02936,-6175.6446)" />
      <path
         sodipodi:type="arc"
         style="fill:#7c4c3e;fill-opacity:1;stroke:none"
         id="path3968"
         sodipodi:cx="50.9375"
         sodipodi:cy="1038.8622"
         sodipodi:rx="0.4375"
         sodipodi:ry="0.5"
         d="m 51.375,1038.8622 c 0,0.2761 -0.195875,0.5 -0.4375,0.5 -0.241625,0 -0.4375,-0.2239 -0.4375,-0.5 0,-0.2762 0.195875,-0.5 0.4375,-0.5 0.241625,0 0.4375,0.2238 0.4375,0.5 z"
         transform="matrix(7.0473306,0,0,7.0473306,-99.133105,-6168.5973)" />
      <path
         style="fill:#7c4c3e;fill-opacity:1;stroke:none"
         d="m -190.7484,1085.6584 c 5.88154,13.1463 51.11107,2.6786 56.37864,13.2137 0.57925,1.6008 -10.69145,12.4937 10.571,14.9756 6.93263,0.8092 -15.05201,15.3778 -8.80916,18.4993 39.094776,19.5474 4.65369,14.842 9.69007,29.9511 1.37644,4.1293 9.22237,7.8193 9.69008,9.6901 1.01924,4.077 -31.01968,11.77 -30.83207,12.3328 3.42565,10.277 17.61922,12.7738 27.30841,17.6184 4.43976,2.2198 -9.97651,9.2937 -10.571,9.69 -3.33946,2.2263 16.40122,-3.7322 14.09466,0.8809 -3.64823,7.2965 -9.39888,14.9829 -12.33283,23.7848 -1.31319,3.9396 14.82444,10.7725 12.33284,14.0947 -11.23521,14.9802 -22.52521,26.9297 -37.87941,42.2839 -10.1819,10.1819 -31.68686,-26.3926 -34.35574,-29.9511 -8.38323,-11.1777 -23.05599,-172.5074 -14.97557,-180.5879 7.63682,-7.6368 8.82798,-2.511 9.69008,3.5237 z"
         id="path4431"
         inkscape:connector-curvature="0"
         sodipodi:nodetypes="ccsssscccssssssc" />
      <path
         transform="matrix(7.0473306,0,0,7.0473306,-20.731552,-6133.3606)"
         d="m 51.375,1038.8622 c 0,0.2761 -0.195875,0.5 -0.4375,0.5 -0.241625,0 -0.4375,-0.2239 -0.4375,-0.5 0,-0.2762 0.195875,-0.5 0.4375,-0.5 0.241625,0 0.4375,0.2238 0.4375,0.5 z"
         sodipodi:ry="0.5"
         sodipodi:rx="0.4375"
         sodipodi:cy="1038.8622"
         sodipodi:cx="50.9375"
         id="path4433"
         style="fill:#7c4c3e;fill-opacity:1;stroke:none"
         sodipodi:type="arc" />
      <path
         sodipodi:type="arc"
         style="fill:#7c4c3e;fill-opacity:1;stroke:none"
         id="path4435"
         sodipodi:cx="50.9375"
         sodipodi:cy="1038.8622"
         sodipodi:rx="0.4375"
         sodipodi:ry="0.5"
         d="m 51.375,1038.8622 c 0,0.2761 -0.195875,0.5 -0.4375,0.5 -0.241625,0 -0.4375,-0.2239 -0.4375,-0.5 0,-0.2762 0.195875,-0.5 0.4375,-0.5 0.241625,0 0.4375,0.2238 0.4375,0.5 z"
         transform="matrix(7.0473306,0,0,7.0473306,-350.19426,-6093.7194)" />
      <path
         style="fill:#7c4c3e;fill-opacity:1;stroke:none"
         d="m 75.875,-5.75 c 1.341406,0.8075654 7.996356,2.6104238 8.5,4.625 1.215302,4.8612061 5.025861,22.905173 -0.25,25.25 -1.091389,0.485062 -2.401882,-0.762265 -3.5,-0.625 -1.228821,0.153603 -7.640681,1.292899 -8.375,0.375 C 72.103155,23.691444 75.081898,22.418102 77,20.5 77.667389,19.832611 73.07669,15.625 76.25,15.625 64.893013,13.141239 77.156266,16.37854 75.625,10.25 75.244823,8.9827444 71,6.6249479 71,6 71,5.3377944 72.481467,5.7233832 72.875,5.625 74.465417,5.2273956 74.606504,4.7684962 75.625,3.75 75.773746,3.6012543 73.190715,2.125 74,2.125 c 2.748032,0 -0.412131,-5.1014745 -0.25,-5.75 0.289036,-1.1561427 1.674478,-1.4492175 2.125,-2.125 z"
         id="path4437"
         inkscape:connector-curvature="0"
         transform="matrix(7.0473306,0,0,7.0473306,-155.51175,1118.2523)"
         sodipodi:nodetypes="csssssccsssssc" />
    </g>
  </g>
</svg>
