<?xml version="1.0" encoding="UTF-8" standalone="no"?>
<!-- Created with Inkscape (http://www.inkscape.org/) -->

<svg
   xmlns:dc="http://purl.org/dc/elements/1.1/"
   xmlns:cc="http://creativecommons.org/ns#"
   xmlns:rdf="http://www.w3.org/1999/02/22-rdf-syntax-ns#"
   xmlns:svg="http://www.w3.org/2000/svg"
   xmlns="http://www.w3.org/2000/svg"
   xmlns:sodipodi="http://sodipodi.sourceforge.net/DTD/sodipodi-0.dtd"
   xmlns:inkscape="http://www.inkscape.org/namespaces/inkscape"
   width="80"
   height="20"
   id="svg2"
   version="1.1"
   inkscape:version="0.48.4 r9939"
   sodipodi:docname="road.svg">
  <defs
     id="defs4" />
  <sodipodi:namedview
     id="base"
     pagecolor="#ffffff"
     bordercolor="#666666"
     borderopacity="1.0"
     inkscape:pageopacity="0.0"
     inkscape:pageshadow="2"
     inkscape:zoom="8"
     inkscape:cx="29.660016"
     inkscape:cy="11.969952"
     inkscape:document-units="px"
     inkscape:current-layer="g3786"
     showgrid="false"
     inkscape:window-width="1366"
     inkscape:window-height="718"
     inkscape:window-x="0"
     inkscape:window-y="0"
     inkscape:window-maximized="1"
     fit-margin-top="0"
     fit-margin-left="0"
     fit-margin-right="0"
     fit-margin-bottom="0" />
  <metadata
     id="metadata7">
    <rdf:RDF>
      <cc:Work
         rdf:about="">
        <dc:format>image/svg+xml</dc:format>
        <dc:type
           rdf:resource="http://purl.org/dc/dcmitype/StillImage" />
        <dc:title />
      </cc:Work>
    </rdf:RDF>
  </metadata>
  <g
     inkscape:label="Layer 1"
     inkscape:groupmode="layer"
     id="layer1"
     transform="translate(5.4404602e-7,-1032.3622)">
    <g
       id="g3786"
       transform="matrix(0.1418977,0,0,0.1418977,22.066759,873.68477)"
       style="stroke-width:2.81893229;stroke-miterlimit:4;stroke-dasharray:none">
      <rect
         style="fill:#8a726c;fill-opacity:1;stroke:none"
         id="rect3956"
         width="563.78644"
         height="140.94661"
         x="-155.51175"
         y="1118.2522" />
      <path
         style="fill:#7c4c3e;fill-opacity:1;stroke:none"
         d="m 2,1032.1122 c 0.4837495,1.1451 2.6226999,0.1181 2.875,0.875 0.097293,0.2919 -1.2861367,1.1069 -1.25,1.125 5.2627055,2.6313 0.6790625,1.4149 2,3 0.7559354,0.9071 2.3891957,1.4678 3.375,2.125 0.6828954,0.4552 -3.0707381,1 -2.25,1 1.2161541,0 1.2873877,0.135 0.375,0.5 -0.6657687,0.2663 -4.2759844,1.474 -4.375,1.375 -0.4187448,-0.4188 0.8306873,0.8917 1.375,1.125 0.4611655,0.1976 1.8547789,-0.2298 1.5,0.125 -0.051146,0.051 -2.67943,1.0891 -2.5,1.125 3.0395043,0.6079 3.4255061,0.3005 4.875,1.75 1.0236914,1.0237 -3.5807792,3.0404 -4,3.25 -1.1200275,0.56 0.7619307,0.746 0.375,0.875 -3.1996608,1.0665 -0.459504,3.6295 -6.125,3 -0.3863193,-0.043 -2.4809976,0.144 -2.75,-0.125 -3.8020002,-3.802 -6.889905,-19.2568 -2,-23.875 2.6319714,-2.4858 6.3103061,3.0628 8.5,2.75 z"
         id="path3960"
         inkscape:connector-curvature="0"
         transform="matrix(7.0473306,0,0,7.0473306,-155.51175,-6157.1454)"
         sodipodi:nodetypes="cccscscccccssccscc" />
      <path
         style="fill:#7c4c3e;fill-opacity:1;stroke:none"
         d="m 409.15561,1104.1576 c -46.47645,12.3639 -16.86518,31.5136 -22.90382,38.7603 -4.65483,5.5858 -18.68605,2.2954 -24.66566,5.2855 -3.04063,1.5202 39.2782,-1.1141 6.16641,4.4046 -14.30233,2.3834 -24.47064,6.1664 -39.64123,6.1664 -3.06568,0 -11.43796,1.0656 -8.80916,2.6428 7.71961,4.6315 39.98707,0.155 40.52215,1.7618 6.03751,18.1124 8.39584,9.0072 24.66566,22.0229 7.63373,6.1072 -9.57945,10.4336 -7.04734,12.3329 1.93713,1.4524 9.46874,1.7618 7.04734,1.7618 -5.65244,0 -20.63618,1.2558 -24.66566,5.2855 -0.20931,0.2114 19.11575,0.9683 23.78474,14.9756 3.65332,10.96 -10.4931,9.5082 -19.38016,15.8565 -6.25375,4.4666 -23.54176,16.7374 -15.85649,16.7374 4.89117,0 24.32804,-6.504 28.18932,-2.6428 4.96608,4.9663 10.88297,27.8884 21.14199,23.7847 50.32545,-20.13 61.28159,-101.879 35.23665,-140.9466 -10.64114,-15.9615 -18.24358,-6.0247 -23.78474,-28.1893 z"
         id="path3962"
         inkscape:connector-curvature="0"
         sodipodi:nodetypes="ccccsscccscscsccsc" />
      <path
         sodipodi:type="arc"
         style="fill:#7c4c3e;fill-opacity:1;stroke:none"
         id="path3964"
         sodipodi:cx="20.8125"
         sodipodi:cy="1040.6122"
         sodipodi:rx="0.9375"
         sodipodi:ry="1.125"
         d="m 21.75,1040.6122 c 0,0.6213 -0.419733,1.125 -0.9375,1.125 -0.517767,0 -0.9375,-0.5037 -0.9375,-1.125 0,-0.6213 0.419733,-1.125 0.9375,-1.125 0.517767,0 0.9375,0.5037 0.9375,1.125 z"
         transform="matrix(7.0473306,0,0,7.0473306,-155.51175,-6157.1454)" />
      <path
         sodipodi:type="arc"
         style="fill:#7c4c3e;fill-opacity:1;stroke:none"
         id="path3966"
         sodipodi:cx="41.9375"
         sodipodi:cy="1049.2372"
         sodipodi:rx="0.4375"
         sodipodi:ry="0.375"
         d="m 42.375,1049.2372 c 0,0.2071 -0.195875,0.375 -0.4375,0.375 -0.241625,0 -0.4375,-0.1679 -0.4375,-0.375 0,-0.2071 0.195875,-0.375 0.4375,-0.375 0.241625,0 0.4375,0.1679 0.4375,0.375 z"
         transform="matrix(7.0473306,0,0,7.0473306,-155.51175,-6157.1454)" />
      <path
         sodipodi:type="arc"
         style="fill:#7c4c3e;fill-opacity:1;stroke:none"
         id="path3968"
         sodipodi:cx="50.9375"
         sodipodi:cy="1038.8622"
         sodipodi:rx="0.4375"
         sodipodi:ry="0.5"
         d="m 51.375,1038.8622 c 0,0.2761 -0.195875,0.5 -0.4375,0.5 -0.241625,0 -0.4375,-0.2239 -0.4375,-0.5 0,-0.2762 0.195875,-0.5 0.4375,-0.5 0.241625,0 0.4375,0.2238 0.4375,0.5 z"
         transform="matrix(7.0473306,0,0,7.0473306,-155.51175,-6157.1454)" />
    </g>
  </g>
</svg>
